<svg width="156" height="44" viewBox="0 0 156 44" fill="none" xmlns="http://www.w3.org/2000/svg">
<rect x="0.5" y="0.5" width="155" height="43" stroke="#222831"/>
<path d="M53.9 17.6H55.016V26H53.9V17.6ZM59.698 19.844C60.402 19.844 60.966 20.068 61.39 20.516C61.814 20.956 62.026 21.556 62.026 22.316V26H60.982V22.376C60.982 21.888 60.85 21.512 60.586 21.248C60.322 20.976 59.958 20.84 59.494 20.84C58.974 20.84 58.554 21.004 58.234 21.332C57.914 21.652 57.754 22.148 57.754 22.82V26H56.71V20H57.754V20.864C58.178 20.184 58.826 19.844 59.698 19.844ZM64.3834 21.62C64.3834 21.852 64.4994 22.04 64.7314 22.184C64.9634 22.32 65.2434 22.432 65.5714 22.52C65.8994 22.6 66.2274 22.696 66.5554 22.808C66.8834 22.912 67.1634 23.096 67.3954 23.36C67.6274 23.616 67.7434 23.948 67.7434 24.356C67.7434 24.9 67.5314 25.336 67.1074 25.664C66.6914 25.992 66.1554 26.156 65.4994 26.156C64.9154 26.156 64.4154 26.028 63.9994 25.772C63.5834 25.516 63.2874 25.176 63.1114 24.752L64.0114 24.236C64.1074 24.524 64.2874 24.752 64.5514 24.92C64.8154 25.088 65.1314 25.172 65.4994 25.172C65.8434 25.172 66.1274 25.108 66.3514 24.98C66.5754 24.844 66.6874 24.636 66.6874 24.356C66.6874 24.124 66.5714 23.94 66.3394 23.804C66.1074 23.66 65.8274 23.548 65.4994 23.468C65.1714 23.38 64.8434 23.28 64.5154 23.168C64.1874 23.056 63.9074 22.872 63.6754 22.616C63.4434 22.36 63.3274 22.032 63.3274 21.632C63.3274 21.112 63.5274 20.684 63.9274 20.348C64.3354 20.012 64.8434 19.844 65.4514 19.844C65.9394 19.844 66.3714 19.956 66.7474 20.18C67.1314 20.396 67.4194 20.7 67.6114 21.092L66.7354 21.584C66.5194 21.072 66.0914 20.816 65.4514 20.816C65.1554 20.816 64.9034 20.888 64.6954 21.032C64.4874 21.168 64.3834 21.364 64.3834 21.62ZM72.0091 21.008H70.4131V24.26C70.4131 24.556 70.4691 24.768 70.5811 24.896C70.7011 25.016 70.8811 25.08 71.1211 25.088C71.3611 25.088 71.6571 25.08 72.0091 25.064V26C71.0971 26.12 70.4291 26.048 70.0051 25.784C69.5811 25.512 69.3691 25.004 69.3691 24.26V21.008H68.1811V20H69.3691V18.632L70.4131 18.32V20H72.0091V21.008ZM77.9084 20H78.9524V26H77.9084V24.968C77.3884 25.76 76.6324 26.156 75.6404 26.156C74.8004 26.156 74.0844 25.852 73.4924 25.244C72.9004 24.628 72.6044 23.88 72.6044 23C72.6044 22.12 72.9004 21.376 73.4924 20.768C74.0844 20.152 74.8004 19.844 75.6404 19.844C76.6324 19.844 77.3884 20.24 77.9084 21.032V20ZM75.7724 25.148C76.3804 25.148 76.8884 24.944 77.2964 24.536C77.7044 24.12 77.9084 23.608 77.9084 23C77.9084 22.392 77.7044 21.884 77.2964 21.476C76.8884 21.06 76.3804 20.852 75.7724 20.852C75.1724 20.852 74.6684 21.06 74.2604 21.476C73.8524 21.884 73.6484 22.392 73.6484 23C73.6484 23.608 73.8524 24.12 74.2604 24.536C74.6684 24.944 75.1724 25.148 75.7724 25.148ZM85.5142 20H86.5462V25.748C86.5462 26.636 86.2462 27.324 85.6462 27.812C85.0462 28.308 84.3262 28.556 83.4862 28.556C82.8142 28.556 82.2342 28.428 81.7462 28.172C81.2582 27.924 80.8902 27.564 80.6422 27.092L81.5542 26.576C81.8822 27.248 82.5342 27.584 83.5102 27.584C84.1342 27.584 84.6222 27.42 84.9742 27.092C85.3342 26.764 85.5142 26.316 85.5142 25.748V24.896C84.9862 25.696 84.2342 26.096 83.2582 26.096C82.4022 26.096 81.6782 25.792 81.0862 25.184C80.4942 24.576 80.1982 23.836 80.1982 22.964C80.1982 22.092 80.4942 21.356 81.0862 20.756C81.6782 20.148 82.4022 19.844 83.2582 19.844C84.2422 19.844 84.9942 20.24 85.5142 21.032V20ZM81.8542 24.488C82.2622 24.896 82.7702 25.1 83.3782 25.1C83.9862 25.1 84.4942 24.896 84.9022 24.488C85.3102 24.08 85.5142 23.572 85.5142 22.964C85.5142 22.364 85.3102 21.86 84.9022 21.452C84.4942 21.044 83.9862 20.84 83.3782 20.84C82.7702 20.84 82.2622 21.044 81.8542 21.452C81.4462 21.86 81.2422 22.364 81.2422 22.964C81.2422 23.572 81.4462 24.08 81.8542 24.488ZM89.1719 21.008C89.5159 20.264 90.1399 19.892 91.0439 19.892V20.984C90.5319 20.96 90.0919 21.096 89.7239 21.392C89.3559 21.688 89.1719 22.164 89.1719 22.82V26H88.1279V20H89.1719V21.008ZM96.7053 20H97.7493V26H96.7053V24.968C96.1853 25.76 95.4293 26.156 94.4373 26.156C93.5973 26.156 92.8813 25.852 92.2893 25.244C91.6973 24.628 91.4013 23.88 91.4013 23C91.4013 22.12 91.6973 21.376 92.2893 20.768C92.8813 20.152 93.5973 19.844 94.4373 19.844C95.4293 19.844 96.1853 20.24 96.7053 21.032V20ZM94.5693 25.148C95.1773 25.148 95.6853 24.944 96.0933 24.536C96.5013 24.12 96.7053 23.608 96.7053 23C96.7053 22.392 96.5013 21.884 96.0933 21.476C95.6853 21.06 95.1773 20.852 94.5693 20.852C93.9693 20.852 93.4653 21.06 93.0573 21.476C92.6493 21.884 92.4453 22.392 92.4453 23C92.4453 23.608 92.6493 24.12 93.0573 24.536C93.4653 24.944 93.9693 25.148 94.5693 25.148ZM105.811 19.844C106.483 19.844 107.027 20.064 107.443 20.504C107.859 20.936 108.067 21.524 108.067 22.268V26H107.023V22.304C107.023 21.84 106.903 21.48 106.663 21.224C106.423 20.968 106.103 20.84 105.703 20.84C105.255 20.84 104.895 20.992 104.623 21.296C104.359 21.592 104.227 22.048 104.227 22.664V26H103.183V22.304C103.183 21.84 103.067 21.48 102.835 21.224C102.611 20.968 102.303 20.84 101.911 20.84C101.471 20.84 101.103 20.992 100.807 21.296C100.519 21.6 100.375 22.056 100.375 22.664V26H99.3311V20H100.375V20.804C100.783 20.164 101.379 19.844 102.163 19.844C102.971 19.844 103.559 20.184 103.927 20.864C104.343 20.184 104.971 19.844 105.811 19.844ZM117.579 25.244C116.963 25.852 116.215 26.156 115.335 26.156C114.455 26.156 113.707 25.852 113.091 25.244C112.483 24.636 112.179 23.888 112.179 23C112.179 22.112 112.483 21.364 113.091 20.756C113.707 20.148 114.455 19.844 115.335 19.844C116.215 19.844 116.963 20.148 117.579 20.756C118.195 21.364 118.503 22.112 118.503 23C118.503 23.888 118.195 24.636 117.579 25.244ZM115.335 25.136C115.935 25.136 116.439 24.932 116.847 24.524C117.255 24.116 117.459 23.608 117.459 23C117.459 22.392 117.255 21.884 116.847 21.476C116.439 21.068 115.935 20.864 115.335 20.864C114.743 20.864 114.243 21.068 113.835 21.476C113.427 21.884 113.223 22.392 113.223 23C113.223 23.608 113.427 24.116 113.835 24.524C114.243 24.932 114.743 25.136 115.335 25.136ZM120.777 21.008C121.121 20.264 121.745 19.892 122.649 19.892V20.984C122.137 20.96 121.697 21.096 121.329 21.392C120.961 21.688 120.777 22.164 120.777 22.82V26H119.733V20H120.777V21.008ZM128.311 20H129.355V28.4H128.311V24.968C127.791 25.76 127.035 26.156 126.043 26.156C125.203 26.156 124.487 25.852 123.895 25.244C123.303 24.628 123.007 23.88 123.007 23C123.007 22.12 123.303 21.376 123.895 20.768C124.487 20.152 125.203 19.844 126.043 19.844C127.035 19.844 127.791 20.24 128.311 21.032V20ZM126.175 25.148C126.783 25.148 127.291 24.944 127.699 24.536C128.107 24.12 128.311 23.608 128.311 23C128.311 22.392 128.107 21.884 127.699 21.476C127.291 21.06 126.783 20.852 126.175 20.852C125.575 20.852 125.071 21.06 124.663 21.476C124.255 21.884 124.051 22.392 124.051 23C124.051 23.608 124.255 24.12 124.663 24.536C125.071 24.944 125.575 25.148 126.175 25.148ZM135.905 20H136.949V26H135.905V24.968C135.385 25.76 134.629 26.156 133.637 26.156C132.797 26.156 132.081 25.852 131.489 25.244C130.897 24.628 130.601 23.88 130.601 23C130.601 22.12 130.897 21.376 131.489 20.768C132.081 20.152 132.797 19.844 133.637 19.844C134.629 19.844 135.385 20.24 135.905 21.032V20ZM133.769 25.148C134.377 25.148 134.885 24.944 135.293 24.536C135.701 24.12 135.905 23.608 135.905 23C135.905 22.392 135.701 21.884 135.293 21.476C134.885 21.06 134.377 20.852 133.769 20.852C133.169 20.852 132.665 21.06 132.257 21.476C131.849 21.884 131.645 22.392 131.645 23C131.645 23.608 131.849 24.12 132.257 24.536C132.665 24.944 133.169 25.148 133.769 25.148ZM138.53 26V17.24H139.574V26H138.53ZM141.695 18.908C141.495 18.908 141.327 18.84 141.191 18.704C141.055 18.568 140.987 18.404 140.987 18.212C140.987 18.02 141.055 17.856 141.191 17.72C141.327 17.576 141.495 17.504 141.695 17.504C141.887 17.504 142.051 17.576 142.187 17.72C142.323 17.856 142.391 18.02 142.391 18.212C142.391 18.404 142.323 18.568 142.187 18.704C142.051 18.84 141.887 18.908 141.695 18.908ZM141.167 26V20H142.211V26H141.167Z" fill="#222831"/>
<path fill-rule="evenodd" clip-rule="evenodd" d="M21.8159 7.09C23.4155 7.01636 23.9255 7 28 7C32.0745 7 32.5845 7.01773 34.1827 7.09C35.7809 7.16227 36.8718 7.41727 37.8264 7.78682C38.8259 8.16455 39.7327 8.755 40.4827 9.51864C41.2464 10.2673 41.8355 11.1727 42.2118 12.1736C42.5827 13.1282 42.8364 14.2191 42.91 15.8145C42.9836 17.4168 43 17.9268 43 22C43 26.0745 42.9823 26.5845 42.91 28.1841C42.8377 29.7795 42.5827 30.8705 42.2118 31.825C41.8354 32.826 41.2454 33.733 40.4827 34.4827C39.7327 35.2464 38.8259 35.8355 37.8264 36.2118C36.8718 36.5827 35.7809 36.8364 34.1855 36.91C32.5845 36.9836 32.0745 37 28 37C23.9255 37 23.4155 36.9823 21.8159 36.91C20.2205 36.8377 19.1295 36.5827 18.175 36.2118C17.174 35.8354 16.267 35.2453 15.5173 34.4827C14.7542 33.7336 14.1636 32.8271 13.7868 31.8264C13.4173 30.8718 13.1636 29.7809 13.09 28.1855C13.0164 26.5832 13 26.0732 13 22C13 17.9255 13.0177 17.4155 13.09 15.8173C13.1623 14.2191 13.4173 13.1282 13.7868 12.1736C14.1642 11.1728 14.7552 10.2663 15.5186 9.51727C16.2673 8.75432 17.1734 8.16379 18.1736 7.78682C19.1282 7.41727 20.2191 7.16364 21.8145 7.09H21.8159ZM34.0614 9.79C32.4795 9.71773 32.005 9.70273 28 9.70273C23.995 9.70273 23.5205 9.71773 21.9386 9.79C20.4755 9.85682 19.6818 10.1009 19.1527 10.3068C18.4532 10.5795 17.9527 10.9027 17.4277 11.4277C16.9301 11.9119 16.5471 12.5013 16.3068 13.1527C16.1009 13.6818 15.8568 14.4755 15.79 15.9386C15.7177 17.5205 15.7027 17.995 15.7027 22C15.7027 26.005 15.7177 26.4795 15.79 28.0614C15.8568 29.5245 16.1009 30.3182 16.3068 30.8473C16.5468 31.4977 16.93 32.0882 17.4277 32.5723C17.9118 33.07 18.5023 33.4532 19.1527 33.6932C19.6818 33.8991 20.4755 34.1432 21.9386 34.21C23.5205 34.2823 23.9936 34.2973 28 34.2973C32.0064 34.2973 32.4795 34.2823 34.0614 34.21C35.5245 34.1432 36.3182 33.8991 36.8473 33.6932C37.5468 33.4205 38.0473 33.0973 38.5723 32.5723C39.07 32.0882 39.4532 31.4977 39.6932 30.8473C39.8991 30.3182 40.1432 29.5245 40.21 28.0614C40.2823 26.4795 40.2973 26.005 40.2973 22C40.2973 17.995 40.2823 17.5205 40.21 15.9386C40.1432 14.4755 39.8991 13.6818 39.6932 13.1527C39.4205 12.4532 39.0973 11.9527 38.5723 11.4277C38.0881 10.9301 37.4987 10.5471 36.8473 10.3068C36.3182 10.1009 35.5245 9.85682 34.0614 9.79V9.79ZM26.0841 26.6241C27.1541 27.0695 28.3455 27.1296 29.4549 26.7942C30.5643 26.4587 31.5228 25.7485 32.1667 24.7849C32.8107 23.8212 33.1001 22.6639 32.9855 21.5106C32.871 20.3573 32.3596 19.2795 31.5386 18.4614C31.0153 17.9384 30.3826 17.5379 29.6859 17.2888C28.9893 17.0397 28.246 16.9482 27.5098 17.0208C26.7735 17.0935 26.0625 17.3284 25.4279 17.7088C24.7933 18.0892 24.251 18.6056 23.84 19.2207C23.4289 19.8359 23.1593 20.5345 23.0507 21.2663C22.9421 21.9981 22.997 22.7449 23.2116 23.453C23.4263 24.161 23.7952 24.8126 24.2919 25.361C24.7886 25.9093 25.4007 26.3407 26.0841 26.6241ZM22.5482 16.5482C23.2641 15.8322 24.1141 15.2643 25.0495 14.8769C25.9849 14.4894 26.9875 14.29 28 14.29C29.0125 14.29 30.0151 14.4894 30.9505 14.8769C31.8859 15.2643 32.7359 15.8322 33.4518 16.5482C34.1678 17.2641 34.7357 18.1141 35.1231 19.0495C35.5106 19.9849 35.71 20.9875 35.71 22C35.71 23.0125 35.5106 24.0151 35.1231 24.9505C34.7357 25.8859 34.1678 26.7359 33.4518 27.4518C32.0059 28.8977 30.0448 29.71 28 29.71C25.9552 29.71 23.9941 28.8977 22.5482 27.4518C21.1023 26.0059 20.29 24.0448 20.29 22C20.29 19.9552 21.1023 17.9941 22.5482 16.5482V16.5482ZM37.42 15.4382C37.5974 15.2708 37.7394 15.0696 37.8377 14.8463C37.9359 14.6231 37.9884 14.3824 37.9919 14.1385C37.9955 13.8947 37.9501 13.6526 37.8584 13.4266C37.7667 13.2006 37.6306 12.9952 37.4581 12.8228C37.2857 12.6503 37.0804 12.5142 36.8544 12.4225C36.6283 12.3308 36.3862 12.2854 36.1424 12.289C35.8985 12.2925 35.6578 12.345 35.4346 12.4432C35.2113 12.5415 35.0101 12.6835 34.8427 12.8609C34.5172 13.2059 34.339 13.6643 34.346 14.1385C34.3529 14.6128 34.5444 15.0657 34.8798 15.4011C35.2152 15.7366 35.6681 15.928 36.1424 15.935C36.6167 15.9419 37.075 15.7637 37.42 15.4382V15.4382Z" fill="#222831"/>
</svg>
