<svg width="26" height="26" viewBox="0 0 26 26" fill="none" xmlns="http://www.w3.org/2000/svg">
<mask id="mask0_81_793" style="mask-type:alpha" maskUnits="userSpaceOnUse" x="0" y="0" width="26" height="26">
<rect width="26" height="26" fill="#C4C4C4"/>
</mask>
<g mask="url(#mask0_81_793)">
<path fill-rule="evenodd" clip-rule="evenodd" d="M7.80416 5.00307L7.77998 5.00147C6.66066 4.94939 5.08111 6.29526 4.49747 7.2687C3.85708 8.14342 3.84477 9.30503 4.404 10.6487L4.49216 10.8516C5.96575 14.4807 11.4953 20.0033 15.1102 21.5153C16.4934 22.1623 17.7261 22.1742 18.6973 21.4748C19.5512 20.9866 20.9517 19.3623 20.9112 18.2087C20.8727 17.7341 20.6521 17.3466 20.3094 16.9939L20.2257 16.9108L19.9929 16.6955C19.1499 15.9416 17.6903 14.8684 17.2388 14.7735C16.7087 14.663 16.3493 14.7619 15.7824 15.0745L15.5713 15.1946C15.1681 15.4271 15.0239 15.4668 14.8329 15.3971C12.816 14.5691 11.3937 13.1397 10.5602 11.0893C10.506 10.9374 10.5328 10.8048 10.7081 10.4831L10.8005 10.3191C11.1826 9.65167 11.3107 9.27439 11.1904 8.69343L11.1691 8.61814C10.9717 8.04335 9.76166 6.42166 9.08979 5.71566L8.98155 5.60615C8.6314 5.26227 8.24638 5.04114 7.80416 5.00307ZM7.71018 6.24429L7.75628 6.25314C7.83694 6.27591 7.93207 6.33177 8.03919 6.42381L8.11721 6.49516L8.26447 6.65018C8.83572 7.28091 9.94241 8.76831 9.97902 8.94616C10.0136 9.11313 9.97535 9.25267 9.79409 9.58153L9.69925 9.74919C9.30009 10.4481 9.17654 10.8988 9.40592 11.5361C10.3742 13.9195 12.0407 15.5943 14.3881 16.5574C14.9936 16.7788 15.4227 16.6903 16.0308 16.3608L16.2391 16.2431C16.6517 16.0046 16.8027 15.9527 16.9866 15.9911C17.1663 16.0288 18.7742 17.2356 19.3636 17.8027L19.4324 17.8711C19.5844 18.0277 19.6675 18.1736 19.6765 18.2819C19.6847 18.535 19.4313 19.0104 18.9839 19.5294C18.6653 19.8988 18.2518 20.2765 18.0724 20.4018L18.0296 20.4295C17.4503 20.843 16.7348 20.8607 15.7887 20.4576L15.6086 20.3771C12.3402 19.0095 7.20027 13.9147 5.71577 10.5658L5.6278 10.3588C5.16781 9.34136 5.12965 8.59753 5.45993 8.05634L5.52617 7.95723C5.90898 7.32337 7.06264 6.32499 7.63706 6.24814L7.71018 6.24429ZM14.5586 5.20686L14.6426 5.21052C17.9829 5.58337 20.6208 8.23223 20.9962 11.5901C21.0344 11.9314 20.7901 12.2392 20.4506 12.2776C20.1111 12.3159 19.805 12.0703 19.7668 11.729C19.456 8.94867 17.2719 6.75544 14.5061 6.44673C14.1666 6.40883 13.9219 6.10137 13.9596 5.76C13.991 5.47553 14.2086 5.25728 14.4768 5.21436L14.5586 5.20686ZM14.6092 8.1459L14.6927 8.15647C16.3998 8.491 17.7337 9.83216 18.0665 11.5484C18.1318 11.8856 17.913 12.2121 17.5777 12.2778C17.2424 12.3435 16.9175 12.1235 16.8522 11.7864C16.6158 10.5673 15.6685 9.61491 14.456 9.3773C14.1207 9.31159 13.9018 8.98503 13.9672 8.6479C14.0216 8.36697 14.2563 8.16735 14.527 8.14665L14.6092 8.1459Z" fill="#222831"/>
</g>
</svg>
