<svg width="156" height="44" viewBox="0 0 156 44" fill="none" xmlns="http://www.w3.org/2000/svg">
<rect x="0.5" y="0.5" width="155" height="43" stroke="#222831"/>
<path d="M59.276 17.6V18.656H56.792V26H55.688V18.656H53.216V17.6H59.276ZM59.9146 23.48C60.0186 24.016 60.2626 24.432 60.6466 24.728C61.0386 25.024 61.5186 25.172 62.0866 25.172C62.8786 25.172 63.4546 24.88 63.8146 24.296L64.7026 24.8C64.1186 25.704 63.2386 26.156 62.0626 26.156C61.1106 26.156 60.3346 25.86 59.7346 25.268C59.1426 24.668 58.8466 23.912 58.8466 23C58.8466 22.096 59.1386 21.344 59.7226 20.744C60.3066 20.144 61.0626 19.844 61.9906 19.844C62.8706 19.844 63.5866 20.156 64.1386 20.78C64.6986 21.396 64.9786 22.14 64.9786 23.012C64.9786 23.164 64.9666 23.32 64.9426 23.48H59.9146ZM61.9906 20.828C61.4306 20.828 60.9666 20.988 60.5986 21.308C60.2306 21.62 60.0026 22.04 59.9146 22.568H63.9226C63.8346 22 63.6106 21.568 63.2506 21.272C62.8906 20.976 62.4706 20.828 61.9906 20.828ZM66.1787 26V17.24H67.2227V26H66.1787ZM69.5474 23.48C69.6514 24.016 69.8954 24.432 70.2794 24.728C70.6714 25.024 71.1514 25.172 71.7194 25.172C72.5114 25.172 73.0874 24.88 73.4474 24.296L74.3354 24.8C73.7514 25.704 72.8714 26.156 71.6954 26.156C70.7434 26.156 69.9674 25.86 69.3674 25.268C68.7754 24.668 68.4794 23.912 68.4794 23C68.4794 22.096 68.7714 21.344 69.3554 20.744C69.9394 20.144 70.6954 19.844 71.6234 19.844C72.5034 19.844 73.2194 20.156 73.7714 20.78C74.3314 21.396 74.6114 22.14 74.6114 23.012C74.6114 23.164 74.5994 23.32 74.5754 23.48H69.5474ZM71.6234 20.828C71.0634 20.828 70.5994 20.988 70.2314 21.308C69.8634 21.62 69.6354 22.04 69.5474 22.568H73.5554C73.4674 22 73.2434 21.568 72.8834 21.272C72.5234 20.976 72.1034 20.828 71.6234 20.828ZM80.7798 20H81.8118V25.748C81.8118 26.636 81.5118 27.324 80.9118 27.812C80.3118 28.308 79.5918 28.556 78.7518 28.556C78.0798 28.556 77.4998 28.428 77.0118 28.172C76.5238 27.924 76.1558 27.564 75.9078 27.092L76.8198 26.576C77.1478 27.248 77.7998 27.584 78.7758 27.584C79.3998 27.584 79.8878 27.42 80.2398 27.092C80.5998 26.764 80.7798 26.316 80.7798 25.748V24.896C80.2518 25.696 79.4998 26.096 78.5238 26.096C77.6678 26.096 76.9438 25.792 76.3518 25.184C75.7598 24.576 75.4638 23.836 75.4638 22.964C75.4638 22.092 75.7598 21.356 76.3518 20.756C76.9438 20.148 77.6678 19.844 78.5238 19.844C79.5078 19.844 80.2598 20.24 80.7798 21.032V20ZM77.1198 24.488C77.5278 24.896 78.0358 25.1 78.6438 25.1C79.2518 25.1 79.7598 24.896 80.1678 24.488C80.5758 24.08 80.7798 23.572 80.7798 22.964C80.7798 22.364 80.5758 21.86 80.1678 21.452C79.7598 21.044 79.2518 20.84 78.6438 20.84C78.0358 20.84 77.5278 21.044 77.1198 21.452C76.7118 21.86 76.5078 22.364 76.5078 22.964C76.5078 23.572 76.7118 24.08 77.1198 24.488ZM84.4376 21.008C84.7816 20.264 85.4056 19.892 86.3096 19.892V20.984C85.7976 20.96 85.3576 21.096 84.9896 21.392C84.6216 21.688 84.4376 22.164 84.4376 22.82V26H83.3936V20H84.4376V21.008ZM91.9709 20H93.0149V26H91.9709V24.968C91.4509 25.76 90.6949 26.156 89.7029 26.156C88.8629 26.156 88.1469 25.852 87.5549 25.244C86.9629 24.628 86.6669 23.88 86.6669 23C86.6669 22.12 86.9629 21.376 87.5549 20.768C88.1469 20.152 88.8629 19.844 89.7029 19.844C90.6949 19.844 91.4509 20.24 91.9709 21.032V20ZM89.8349 25.148C90.4429 25.148 90.9509 24.944 91.3589 24.536C91.7669 24.12 91.9709 23.608 91.9709 23C91.9709 22.392 91.7669 21.884 91.3589 21.476C90.9509 21.06 90.4429 20.852 89.8349 20.852C89.2349 20.852 88.7309 21.06 88.3229 21.476C87.9149 21.884 87.7109 22.392 87.7109 23C87.7109 23.608 87.9149 24.12 88.3229 24.536C88.7309 24.944 89.2349 25.148 89.8349 25.148ZM101.077 19.844C101.749 19.844 102.293 20.064 102.709 20.504C103.125 20.936 103.333 21.524 103.333 22.268V26H102.289V22.304C102.289 21.84 102.169 21.48 101.929 21.224C101.689 20.968 101.369 20.84 100.969 20.84C100.521 20.84 100.161 20.992 99.8887 21.296C99.6247 21.592 99.4927 22.048 99.4927 22.664V26H98.4487V22.304C98.4487 21.84 98.3327 21.48 98.1007 21.224C97.8767 20.968 97.5687 20.84 97.1767 20.84C96.7367 20.84 96.3687 20.992 96.0727 21.296C95.7847 21.6 95.6407 22.056 95.6407 22.664V26H94.5967V20H95.6407V20.804C96.0487 20.164 96.6447 19.844 97.4287 19.844C98.2367 19.844 98.8247 20.184 99.1927 20.864C99.6087 20.184 100.237 19.844 101.077 19.844ZM112.844 25.244C112.228 25.852 111.48 26.156 110.6 26.156C109.72 26.156 108.972 25.852 108.356 25.244C107.748 24.636 107.444 23.888 107.444 23C107.444 22.112 107.748 21.364 108.356 20.756C108.972 20.148 109.72 19.844 110.6 19.844C111.48 19.844 112.228 20.148 112.844 20.756C113.46 21.364 113.768 22.112 113.768 23C113.768 23.888 113.46 24.636 112.844 25.244ZM110.6 25.136C111.2 25.136 111.704 24.932 112.112 24.524C112.52 24.116 112.724 23.608 112.724 23C112.724 22.392 112.52 21.884 112.112 21.476C111.704 21.068 111.2 20.864 110.6 20.864C110.008 20.864 109.508 21.068 109.1 21.476C108.692 21.884 108.488 22.392 108.488 23C108.488 23.608 108.692 24.116 109.1 24.524C109.508 24.932 110.008 25.136 110.6 25.136ZM116.043 21.008C116.387 20.264 117.011 19.892 117.915 19.892V20.984C117.403 20.96 116.963 21.096 116.595 21.392C116.227 21.688 116.043 22.164 116.043 22.82V26H114.999V20H116.043V21.008ZM123.576 20H124.62V28.4H123.576V24.968C123.056 25.76 122.3 26.156 121.308 26.156C120.468 26.156 119.752 25.852 119.16 25.244C118.568 24.628 118.272 23.88 118.272 23C118.272 22.12 118.568 21.376 119.16 20.768C119.752 20.152 120.468 19.844 121.308 19.844C122.3 19.844 123.056 20.24 123.576 21.032V20ZM121.44 25.148C122.048 25.148 122.556 24.944 122.964 24.536C123.372 24.12 123.576 23.608 123.576 23C123.576 22.392 123.372 21.884 122.964 21.476C122.556 21.06 122.048 20.852 121.44 20.852C120.84 20.852 120.336 21.06 119.928 21.476C119.52 21.884 119.316 22.392 119.316 23C119.316 23.608 119.52 24.12 119.928 24.536C120.336 24.944 120.84 25.148 121.44 25.148ZM131.17 20H132.214V26H131.17V24.968C130.65 25.76 129.894 26.156 128.902 26.156C128.062 26.156 127.346 25.852 126.754 25.244C126.162 24.628 125.866 23.88 125.866 23C125.866 22.12 126.162 21.376 126.754 20.768C127.346 20.152 128.062 19.844 128.902 19.844C129.894 19.844 130.65 20.24 131.17 21.032V20ZM129.034 25.148C129.642 25.148 130.15 24.944 130.558 24.536C130.966 24.12 131.17 23.608 131.17 23C131.17 22.392 130.966 21.884 130.558 21.476C130.15 21.06 129.642 20.852 129.034 20.852C128.434 20.852 127.93 21.06 127.522 21.476C127.114 21.884 126.91 22.392 126.91 23C126.91 23.608 127.114 24.12 127.522 24.536C127.93 24.944 128.434 25.148 129.034 25.148ZM133.796 26V17.24H134.84V26H133.796ZM136.961 18.908C136.761 18.908 136.593 18.84 136.457 18.704C136.321 18.568 136.253 18.404 136.253 18.212C136.253 18.02 136.321 17.856 136.457 17.72C136.593 17.576 136.761 17.504 136.961 17.504C137.153 17.504 137.317 17.576 137.453 17.72C137.589 17.856 137.657 18.02 137.657 18.212C137.657 18.404 137.589 18.568 137.453 18.704C137.317 18.84 137.153 18.908 136.961 18.908ZM136.433 26V20H137.477V26H136.433Z" fill="#222831"/>
<path fill-rule="evenodd" clip-rule="evenodd" d="M43 22C43 30.2837 36.2837 37 28 37C19.7163 37 13 30.2837 13 22C13 13.7163 19.7163 7 28 7C36.2837 7 43 13.7163 43 22ZM28.5375 18.0738C27.0788 18.68 24.1625 19.9363 19.79 21.8413C19.08 22.1238 18.7075 22.4 18.6738 22.67C18.6163 23.1275 19.1887 23.3075 19.9662 23.5513C20.0725 23.585 20.1825 23.6187 20.295 23.6562C21.0612 23.905 22.0913 24.1962 22.6263 24.2075C23.1125 24.2175 23.655 24.0175 24.2538 23.6075C28.3388 20.8488 30.4475 19.455 30.58 19.425C30.6738 19.4037 30.8037 19.3762 30.8912 19.455C30.9787 19.5325 30.97 19.68 30.9613 19.72C30.9038 19.9612 28.6612 22.0475 27.4987 23.1275C27.1362 23.4638 26.88 23.7025 26.8275 23.7575C26.71 23.8788 26.59 23.995 26.475 24.1063C25.7625 24.7913 25.23 25.3063 26.505 26.1463C27.1175 26.55 27.6075 26.8838 28.0962 27.2163C28.63 27.58 29.1625 27.9425 29.8525 28.395C30.0275 28.51 30.195 28.6287 30.3588 28.745C30.98 29.1887 31.5388 29.5862 32.2288 29.5237C32.6288 29.4862 33.0437 29.11 33.2537 27.9862C33.75 25.3287 34.7275 19.5738 34.9537 17.2013C34.9675 17.0043 34.9591 16.8064 34.9287 16.6113C34.9106 16.4537 34.8338 16.3087 34.7138 16.205C34.535 16.0587 34.2575 16.0275 34.1325 16.03C33.5688 16.04 32.7038 16.3413 28.5375 18.0738V18.0738Z" fill="#222831"/>
</svg>
