<svg width="156" height="44" viewBox="0 0 156 44" fill="none" xmlns="http://www.w3.org/2000/svg">
<rect x="0.5" y="0.5" width="155" height="43" stroke="#222831"/>
<path d="M58.736 18.656H55.016V21.38H58.58V22.436H55.016V26H53.9V17.6H58.736V18.656ZM64.9475 20H65.9915V26H64.9475V24.968C64.4275 25.76 63.6715 26.156 62.6795 26.156C61.8395 26.156 61.1235 25.852 60.5315 25.244C59.9395 24.628 59.6435 23.88 59.6435 23C59.6435 22.12 59.9395 21.376 60.5315 20.768C61.1235 20.152 61.8395 19.844 62.6795 19.844C63.6715 19.844 64.4275 20.24 64.9475 21.032V20ZM62.8115 25.148C63.4195 25.148 63.9275 24.944 64.3355 24.536C64.7435 24.12 64.9475 23.608 64.9475 23C64.9475 22.392 64.7435 21.884 64.3355 21.476C63.9275 21.06 63.4195 20.852 62.8115 20.852C62.2115 20.852 61.7075 21.06 61.2995 21.476C60.8915 21.884 60.6875 22.392 60.6875 23C60.6875 23.608 60.8915 24.12 61.2995 24.536C61.7075 24.944 62.2115 25.148 62.8115 25.148ZM70.3933 26.156C69.4893 26.156 68.7373 25.856 68.1373 25.256C67.5373 24.648 67.2373 23.896 67.2373 23C67.2373 22.104 67.5373 21.356 68.1373 20.756C68.7373 20.148 69.4893 19.844 70.3933 19.844C70.9853 19.844 71.5173 19.988 71.9893 20.276C72.4613 20.556 72.8133 20.936 73.0453 21.416L72.1693 21.92C72.0173 21.6 71.7813 21.344 71.4613 21.152C71.1493 20.96 70.7933 20.864 70.3933 20.864C69.7933 20.864 69.2893 21.068 68.8813 21.476C68.4813 21.884 68.2812 22.392 68.2812 23C68.2812 23.6 68.4813 24.104 68.8813 24.512C69.2893 24.92 69.7933 25.124 70.3933 25.124C70.7933 25.124 71.1533 25.032 71.4733 24.848C71.7933 24.656 72.0373 24.4 72.2053 24.08L73.0933 24.596C72.8373 25.068 72.4693 25.448 71.9893 25.736C71.5093 26.016 70.9773 26.156 70.3933 26.156ZM74.774 23.48C74.878 24.016 75.122 24.432 75.506 24.728C75.898 25.024 76.378 25.172 76.946 25.172C77.738 25.172 78.314 24.88 78.674 24.296L79.562 24.8C78.978 25.704 78.098 26.156 76.922 26.156C75.97 26.156 75.194 25.86 74.594 25.268C74.002 24.668 73.706 23.912 73.706 23C73.706 22.096 73.998 21.344 74.582 20.744C75.166 20.144 75.922 19.844 76.85 19.844C77.73 19.844 78.446 20.156 78.998 20.78C79.558 21.396 79.838 22.14 79.838 23.012C79.838 23.164 79.826 23.32 79.802 23.48H74.774ZM76.85 20.828C76.29 20.828 75.826 20.988 75.458 21.308C75.09 21.62 74.862 22.04 74.774 22.568H78.782C78.694 22 78.47 21.568 78.11 21.272C77.75 20.976 77.33 20.828 76.85 20.828ZM84.3501 19.844C85.1901 19.844 85.9061 20.152 86.4981 20.768C87.0901 21.376 87.3861 22.12 87.3861 23C87.3861 23.88 87.0901 24.628 86.4981 25.244C85.9061 25.852 85.1901 26.156 84.3501 26.156C83.3581 26.156 82.6021 25.76 82.0821 24.968V26H81.0381V17.6H82.0821V21.032C82.6021 20.24 83.3581 19.844 84.3501 19.844ZM84.2181 25.148C84.8181 25.148 85.3221 24.944 85.7301 24.536C86.1381 24.12 86.3421 23.608 86.3421 23C86.3421 22.392 86.1381 21.884 85.7301 21.476C85.3221 21.06 84.8181 20.852 84.2181 20.852C83.6101 20.852 83.1021 21.06 82.6941 21.476C82.2861 21.884 82.0821 22.392 82.0821 23C82.0821 23.608 82.2861 24.12 82.6941 24.536C83.1021 24.944 83.6101 25.148 84.2181 25.148ZM93.6958 25.244C93.0798 25.852 92.3318 26.156 91.4518 26.156C90.5718 26.156 89.8238 25.852 89.2078 25.244C88.5998 24.636 88.2958 23.888 88.2958 23C88.2958 22.112 88.5998 21.364 89.2078 20.756C89.8238 20.148 90.5718 19.844 91.4518 19.844C92.3318 19.844 93.0798 20.148 93.6958 20.756C94.3118 21.364 94.6198 22.112 94.6198 23C94.6198 23.888 94.3118 24.636 93.6958 25.244ZM91.4518 25.136C92.0518 25.136 92.5558 24.932 92.9638 24.524C93.3718 24.116 93.5758 23.608 93.5758 23C93.5758 22.392 93.3718 21.884 92.9638 21.476C92.5558 21.068 92.0518 20.864 91.4518 20.864C90.8598 20.864 90.3598 21.068 89.9518 21.476C89.5438 21.884 89.3398 22.392 89.3398 23C89.3398 23.608 89.5438 24.116 89.9518 24.524C90.3598 24.932 90.8598 25.136 91.4518 25.136ZM100.915 25.244C100.299 25.852 99.5506 26.156 98.6706 26.156C97.7906 26.156 97.0426 25.852 96.4266 25.244C95.8186 24.636 95.5146 23.888 95.5146 23C95.5146 22.112 95.8186 21.364 96.4266 20.756C97.0426 20.148 97.7906 19.844 98.6706 19.844C99.5506 19.844 100.299 20.148 100.915 20.756C101.531 21.364 101.839 22.112 101.839 23C101.839 23.888 101.531 24.636 100.915 25.244ZM98.6706 25.136C99.2706 25.136 99.7746 24.932 100.183 24.524C100.591 24.116 100.795 23.608 100.795 23C100.795 22.392 100.591 21.884 100.183 21.476C99.7746 21.068 99.2706 20.864 98.6706 20.864C98.0786 20.864 97.5786 21.068 97.1706 21.476C96.7626 21.884 96.5586 22.392 96.5586 23C96.5586 23.608 96.7626 24.116 97.1706 24.524C97.5786 24.932 98.0786 25.136 98.6706 25.136ZM108.145 26H106.849L104.113 23.156V26H103.069V17.6H104.113V22.652L106.705 20H108.049L105.181 22.904L108.145 26ZM117.18 25.244C116.564 25.852 115.816 26.156 114.936 26.156C114.056 26.156 113.308 25.852 112.692 25.244C112.084 24.636 111.78 23.888 111.78 23C111.78 22.112 112.084 21.364 112.692 20.756C113.308 20.148 114.056 19.844 114.936 19.844C115.816 19.844 116.564 20.148 117.18 20.756C117.796 21.364 118.104 22.112 118.104 23C118.104 23.888 117.796 24.636 117.18 25.244ZM114.936 25.136C115.536 25.136 116.04 24.932 116.448 24.524C116.856 24.116 117.06 23.608 117.06 23C117.06 22.392 116.856 21.884 116.448 21.476C116.04 21.068 115.536 20.864 114.936 20.864C114.344 20.864 113.844 21.068 113.436 21.476C113.028 21.884 112.824 22.392 112.824 23C112.824 23.608 113.028 24.116 113.436 24.524C113.844 24.932 114.344 25.136 114.936 25.136ZM120.379 21.008C120.723 20.264 121.347 19.892 122.251 19.892V20.984C121.739 20.96 121.299 21.096 120.931 21.392C120.563 21.688 120.379 22.164 120.379 22.82V26H119.335V20H120.379V21.008ZM127.912 20H128.956V28.4H127.912V24.968C127.392 25.76 126.636 26.156 125.644 26.156C124.804 26.156 124.088 25.852 123.496 25.244C122.904 24.628 122.608 23.88 122.608 23C122.608 22.12 122.904 21.376 123.496 20.768C124.088 20.152 124.804 19.844 125.644 19.844C126.636 19.844 127.392 20.24 127.912 21.032V20ZM125.776 25.148C126.384 25.148 126.892 24.944 127.3 24.536C127.708 24.12 127.912 23.608 127.912 23C127.912 22.392 127.708 21.884 127.3 21.476C126.892 21.06 126.384 20.852 125.776 20.852C125.176 20.852 124.672 21.06 124.264 21.476C123.856 21.884 123.652 22.392 123.652 23C123.652 23.608 123.856 24.12 124.264 24.536C124.672 24.944 125.176 25.148 125.776 25.148ZM135.506 20H136.55V26H135.506V24.968C134.986 25.76 134.23 26.156 133.238 26.156C132.398 26.156 131.682 25.852 131.09 25.244C130.498 24.628 130.202 23.88 130.202 23C130.202 22.12 130.498 21.376 131.09 20.768C131.682 20.152 132.398 19.844 133.238 19.844C134.23 19.844 134.986 20.24 135.506 21.032V20ZM133.37 25.148C133.978 25.148 134.486 24.944 134.894 24.536C135.302 24.12 135.506 23.608 135.506 23C135.506 22.392 135.302 21.884 134.894 21.476C134.486 21.06 133.978 20.852 133.37 20.852C132.77 20.852 132.266 21.06 131.858 21.476C131.45 21.884 131.246 22.392 131.246 23C131.246 23.608 131.45 24.12 131.858 24.536C132.266 24.944 132.77 25.148 133.37 25.148ZM138.132 26V17.24H139.176V26H138.132ZM141.297 18.908C141.097 18.908 140.929 18.84 140.793 18.704C140.657 18.568 140.589 18.404 140.589 18.212C140.589 18.02 140.657 17.856 140.793 17.72C140.929 17.576 141.097 17.504 141.297 17.504C141.489 17.504 141.653 17.576 141.789 17.72C141.925 17.856 141.993 18.02 141.993 18.212C141.993 18.404 141.925 18.568 141.789 18.704C141.653 18.84 141.489 18.908 141.297 18.908ZM140.769 26V20H141.813V26H140.769Z" fill="#222831"/>
<path fill-rule="evenodd" clip-rule="evenodd" d="M13 22.0838C13 29.5413 18.4163 35.7425 25.5 37V26.1663H21.75V22H25.5V18.6663C25.5 14.9163 27.9162 12.8337 31.3337 12.8337C32.4162 12.8337 33.5838 13 34.6663 13.1663V17H32.75C30.9162 17 30.5 17.9162 30.5 19.0837V22H34.5L33.8337 26.1663H30.5V37C37.5837 35.7425 43 29.5425 43 22.0838C43 13.7875 36.25 7 28 7C19.75 7 13 13.7875 13 22.0838Z" fill="#222831"/>
</svg>
